<svg xmlns="http://www.w3.org/2000/svg" width="24" height="24" viewBox="0 0 24.05 24.05"><path d="M21.73,14.33a10,10,0,0,1-1,2.6l.95.91a1,1,0,0,1,0,1.42l-2.08,2.15a1,1,0,0,1-1.41,0l-.95-.91a10.34,10.34,0,0,1-2.56,1.11l0,1.31a1,1,0,0,1-1,1l-3,.05a1,1,0,0,1-1-1l0-1.31a10,10,0,0,1-2.6-1l-.91.95a1,1,0,0,1-1.42,0L2.59,19.59a1,1,0,0,1,0-1.41l.91-.95a10.34,10.34,0,0,1-1.11-2.56l-1.31,0a1,1,0,0,1-1-1l0-3a1,1,0,0,1,1-1l1.31,0a10,10,0,0,1,1-2.6l-.95-.91a1,1,0,0,1,0-1.42L4.41,2.59a1,1,0,0,1,1.41,0l.95.91A10.34,10.34,0,0,1,9.33,2.36l0-1.31a1,1,0,0,1,1-1l3,0a1,1,0,0,1,1,1l0,1.31a10,10,0,0,1,2.6,1l.91-.95a1,1,0,0,1,1.42,0l2.15,2.08a1,1,0,0,1,0,1.41l-.91.95a10.34,10.34,0,0,1,1.11,2.56l1.31,0a1,1,0,0,1,1,1l.05,3a1,1,0,0,1-1,1Zm-6.49.8a4.5,4.5,0,1,0-6.37.11A4.52,4.52,0,0,0,15.24,15.13Z" transform="translate(0.02 0.02)"/></svg>